<svg xmlns="http://www.w3.org/2000/svg" viewBox="0 0 59.7 24.76"><path d="M59.64,14.28H51.58c.19,1.93,1.6,2.55,3.2,2.55a8.44,8.44,0,0,0,4-.95V19.2a8.28,8.28,0,0,1-4.56,1.1c-4,0-6.83-2.5-6.83-7.48,0-4.19,2.39-7.52,6.3-7.52s6,3.28,6,7.5C59.7,13.2,59.66,14.06,59.64,14.28ZM53.72,8.66c-1,0-2.17.73-2.17,2.58H55.8C55.8,9.39,54.73,8.66,53.72,8.66ZM41,20.3a4.51,4.51,0,0,1-2.9-1l0,4.63-4.12.87V5.57h3.76l.08,1A4.68,4.68,0,0,1,41,5.3c2.9,0,5.62,2.6,5.62,7.4C46.6,17.93,43.9,20.3,41,20.3ZM40,9a2.49,2.49,0,0,0-2,.81l0,6.12a2.45,2.45,0,0,0,2,.78c1.52,0,2.54-1.65,2.54-3.87S41.5,9,40,9ZM28.24,5.57h4.13V20H28.24Zm0-4.7L32.37,0V3.36l-4.13.88V.88Zm-4.32,9.35V20H19.8V5.57h3.7l.12,1.22a3.06,3.06,0,0,1,3.62-1.22V9.36A3.2,3.2,0,0,0,23.92,10.22Zm-8.55,4.72c0,2.43,2.6,1.68,3.12,1.46v3.36a6.38,6.38,0,0,1-2.89.54,4.15,4.15,0,0,1-4.27-4V2.89l4-.86V5.57H18.5V9.1H15.37V15Zm-4.91.7c0,3-2.31,4.66-5.73,4.66a11.25,11.25,0,0,1-4.46-.93V15.44a10.21,10.21,0,0,0,4.46,1.31c.92,0,1.53-.24,1.53-1,0-2-6.26-1.24-6.26-5.8C0,7,2.28,5.3,5.62,5.3a10.79,10.79,0,0,1,4.09.75V9.93a9.19,9.19,0,0,0-4.1-1.06c-.86,0-1.44.25-1.44.9,0,1.85,6.29,1,6.29,5.88Z" fill-rule="evenodd"/></svg>